<svg xmlns="http://www.w3.org/2000/svg" xmlns:xlink="http://www.w3.org/1999/xlink" viewBox="0 0 176.84 110.63"><defs><style>.cls-1{fill:none;}.cls-2,.cls-7{fill:#fff;}.cls-12,.cls-2{opacity:0.2;}.cls-3{clip-path:url(#clip-path);}.cls-4{fill:#47341e;}.cls-5{fill:#3d2b19;}.cls-6{fill:#614427;}.cls-7{opacity:0.05;}.cls-8{fill:#614223;}.cls-9{fill:#e6ba8b;}.cls-10{opacity:0.15;}.cls-11,.cls-14{fill:#96724d;}.cls-13{font-size:27.55px;fill:#855e37;font-family:Ravie, Ravie;}.cls-14{font-size:14.48px;font-family:ArialRoundedMTBold, Arial Rounded MT Bold;}.cls-15{letter-spacing:-0.02em;}.cls-16{letter-spacing:0em;}</style><clipPath id="clip-path" transform="translate(0 -37.05)"><path class="cls-1" d="M139.47,34.13s-2.4-1-2.41-1-2.47-.94-2.51-1l-.26-.39.06.11-.05-.07,0,0A73.6,73.6,0,0,0,73.71,0h0C73,0,72.24,0,71.52,0l-.68,0L69.3.14l-.74,0L66.84.32,66,.4,64.44.58l-1,.14-1,.14-1.19.19-.55.1A73.76,73.76,0,0,0,11.63,34l.54.45,0,.06-.5-.51A73.34,73.34,0,0,0,0,73.7C0,105.19,19.75,126.1,47.54,134l.11,0q2.63.74,5.35,1.32l.15,0q1.31.28,2.64.52l.32.06q2.63.47,5.33.79l.47.06c.87.1,1.75.19,2.63.27l.35,0q1.22.1,2.46.18l.42,0q1.31.07,2.64.11H71c.91,0,1.82,0,2.73,0h0c1.07,0,2.13,0,3.19-.05h.36q1.51-.05,3-.15l.5,0q1.46-.1,2.9-.24l.51-.05q1.45-.15,2.89-.33l.41-.06q1.49-.2,3-.45l.15,0q1.46-.25,2.89-.54l.28-.05c.94-.19,1.87-.41,2.79-.63l.44-.11q1.35-.33,2.67-.7l.47-.13q1.32-.38,2.62-.79l.41-.14c.89-.29,1.77-.59,2.64-.91L106,132q1.32-.49,2.61-1l.15-.06q1.29-.53,2.55-1.11l.34-.15q1.21-.56,2.39-1.17l.39-.2q1.17-.61,2.31-1.25l.34-.2q1.16-.67,2.3-1.37l.2-.13q2.38-1.5,4.59-3.18l.18-.14q1.06-.81,2.08-1.67l.25-.21q1-.85,2-1.74l.23-.21q1-.91,1.91-1.86l.13-.14q2-2,3.74-4.22l0,0q.86-1.08,1.67-2.2l.12-.16q.79-1.1,1.53-2.25l.12-.18q.74-1.16,1.43-2.36l.07-.12a56.57,56.57,0,0,0,3.73-7.91l0-.08q.51-1.35,1-2.75l.05-.16q.45-1.39.83-2.82l0-.13a66.68,66.68,0,0,0,2.15-17.11C147.41,58.39,147.46,45.91,139.47,34.13Zm-27.2,43.82c-.06.32-.11.65-.18,1s-.14.58-.21.87-.13.56-.2.83-.17.57-.25.85-.16.53-.24.79-.19.55-.29.83-.19.51-.29.77-.21.53-.33.8-.21.5-.33.74l-.36.77-.37.72-.39.73-.41.71c-.14.23-.28.47-.42.69s-.31.47-.46.7l-.44.65c-.17.24-.36.48-.53.71s-.29.39-.44.58c-.29.37-.6.73-.91,1.08l-.5.55c-.23.26-.47.51-.71.76l-.5.49-.67.64-.55.49-.68.59-.58.47-.71.55-.61.44-.75.52-.62.41-.79.49-.63.38L96,100l-.62.34-.95.47-.57.28-1.22.54-.35.15q-.79.33-1.61.63l-.46.16-1.2.41-.63.19-1.07.31-.7.18-1,.26-.74.17-1,.22-.76.14-1.05.18-.77.12-1.08.14-.77.09-1.14.1-.74.06-1.28.07-.63,0c-.64,0-1.28,0-1.92,0h0c-.62,0-1.23,0-1.84,0l-.58,0L70,105.11l-.65,0-1.21-.11-.6-.06L66,104.69l-.25,0q-.85-.13-1.68-.28l-.64-.13L62.4,104l-.71-.16-1-.24-.72-.19-1-.3-1-.31-1.08-.37-.79-.3-.73-.29-.82-.34-.64-.28-.85-.39-.51-.25q-1.56-.78-3-1.68l-.38-.24-.89-.59L48,97.87l-.91-.65-.15-.11A32.52,32.52,0,0,1,44,94.59l-.12-.11c-.29-.28-.57-.57-.85-.87l-.15-.16a30.11,30.11,0,0,1-4-5.31L38.81,88a30.2,30.2,0,0,1-2.32-5h0a34.35,34.35,0,0,1-1.95-11.65A39.17,39.17,0,0,1,60.62,34.46l.15-.05L62.1,34l.85-.25,1.12-.31c.51-.13,1-.25,1.54-.36l.9-.18q.88-.16,1.78-.29l.77-.09q.8-.1,1.61-.16l.71-.05c.77,0,1.54-.08,2.31-.08h0c.62,0,1.24,0,1.86.06a39.11,39.11,0,0,1,30.33,16.8v0l0,0,0-.06.14.21.06.09,0,0a39,39,0,0,1,6.74,21.95A36.46,36.46,0,0,1,112.28,77.95Z"/></clipPath></defs><title>Asset 1</title><g id="Layer_2" data-name="Layer 2"><g id="Layer_1-2" data-name="Layer 1"><path class="cls-2" d="M43.25,51.75,43,51.53l.25.26Z" transform="translate(0 -37.05)"/><g class="cls-3"><path class="cls-4" d="M143.44,47.31h-.05a9.34,9.34,0,0,1-3.87,0l-33.72-.75,5.81,42.7.3.09,0,0L143.75,67Z" transform="translate(0 -37.05)"/><polygon class="cls-5" points="51.13 41.99 111.64 52.23 109.11 10.36 94.86 11.45 50.26 20.46 51.13 41.99"/><polygon class="cls-6" points="110.31 30.28 143.44 10.26 92.6 0.63 50.33 20.73 110.31 30.28"/><polygon class="cls-7" points="60.21 17.14 104.86 24.76 130.28 10.38 92.08 2.35 60.21 17.14"/><circle class="cls-8" cx="37.48" cy="26.27" r="25.23"/><path class="cls-9" d="M60.27,52.5l-1,.56a105.64,105.64,0,0,0-8.5-8q1.29-.74,2.62-1.38a25.53,25.53,0,0,0-2.64-1.88c-.78.41-1.56.84-2.34,1.31l-.2-.16c-2-1.58-3.94-3.05-5.85-4.43a25,25,0,0,0-7.69-.31,73,73,0,0,0-6.33,5.25C27.15,42.75,26,42,25,41.4a25.38,25.38,0,0,0-2.64,1.72c1.18.72,2.47,1.52,3.84,2.41a111.17,111.17,0,0,0-7.62,8.4c-1.22-.81-2.39-1.55-3.49-2.24a24.89,24.89,0,0,0-1.18,2.63c.91.57,1.87,1.19,2.87,1.85-1.61,2-3.12,4.08-4.5,6,0,.36,0,.73,0,1.1a25.38,25.38,0,0,0,.26,3.6c1.93-2.87,4.16-6,6.66-9.15,2.37,1.62,4.89,3.45,7.45,5.44l-.12.14a153.4,153.4,0,0,0-9.95,14.05,25.4,25.4,0,0,0,1.85,2.41A153.32,153.32,0,0,1,28.85,65a108.89,108.89,0,0,1,8.51,7.69l-.89,1.1A152,152,0,0,0,27.4,86.46a24.74,24.74,0,0,0,2.75,1,149,149,0,0,1,9.21-12.69A63.09,63.09,0,0,1,48,86.27a24.94,24.94,0,0,0,2.54-1.34,65.13,65.13,0,0,0-9.29-12.38,100.05,100.05,0,0,1,8-8.37A63.14,63.14,0,0,1,58.74,76.9,25.23,25.23,0,0,0,60.36,74a67,67,0,0,0-9-11.7,62.67,62.67,0,0,1,7.37-5.52c1.38,1.54,2.69,3.13,3.91,4.76a25.12,25.12,0,0,0-1.18-6l-.21-.24.11-.06A25.15,25.15,0,0,0,60.27,52.5Zm-22-13.3c2.41,1.67,5,3.54,7.55,5.58a68.52,68.52,0,0,0-7.46,5.86c-2.6-2-5.17-3.85-7.58-5.48A67.62,67.62,0,0,1,38.27,39.2ZM28.44,61c-2.55-2-5.08-3.82-7.47-5.45a106.38,106.38,0,0,1,7.68-8.38c2.4,1.61,5,3.44,7.58,5.45A106.87,106.87,0,0,0,28.44,61Zm10.78,9.47a112.54,112.54,0,0,0-8.54-7.68,102.93,102.93,0,0,1,7.84-8.38,111.55,111.55,0,0,1,8.67,7.7A102.65,102.65,0,0,0,39.22,70.47ZM49.33,60.19a114.05,114.05,0,0,0-8.68-7.74,64.84,64.84,0,0,1,7.51-5.77,105.11,105.11,0,0,1,8.56,7.91A65.65,65.65,0,0,0,49.33,60.19Z" transform="translate(0 -37.05)"/><path class="cls-10" d="M38.51,38.12a20,20,0,1,1-2.06,0,25.23,25.23,0,1,0,2.06,0Z" transform="translate(0 -37.05)"/></g><path class="cls-9" d="M106.42,68.72c0,17.49-14.65,31.67-32.71,31.67S41,86.21,41,68.72,55.64,37,73.7,37c12.22,0,23.17,7.82,28.1,14.89A35.68,35.68,0,0,1,106.42,68.72Z" transform="translate(0 -37.05)"/><path class="cls-11" d="M101.62,51.68s.18.33.43.89a26.17,26.17,0,0,1,1,2.64,27.66,27.66,0,0,1,1.07,4.31,23.87,23.87,0,0,1,.28,5.81,18.82,18.82,0,0,1-6.53,13,26.77,26.77,0,0,1-7.09,4.36,43.65,43.65,0,0,1-8.13,2.5c-1.39.26-2.79.54-4.19.69l-2.11.27c-.69.06-1.37.12-2.06.17a48.22,48.22,0,0,1-8.22-.19,41.15,41.15,0,0,1-13.92-4A24.76,24.76,0,0,1,44.06,76a7.11,7.11,0,0,1-1.39-2.5,1.85,1.85,0,0,1-.08-.43,1.07,1.07,0,0,1,0-.32l0-.25s0,.09,0,.25a1,1,0,0,0,.05.3,1.57,1.57,0,0,0,.13.4,7.26,7.26,0,0,0,1.62,2.24,20.67,20.67,0,0,0,3.39,2.66,34.9,34.9,0,0,0,5,2.56,43.66,43.66,0,0,0,6.29,2,47,47,0,0,0,7.27,1.12,53,53,0,0,0,7.84,0c.67,0,1.36-.13,2-.19l2-.27c1.36-.16,2.69-.44,4-.7A41.61,41.61,0,0,0,90,80.6a26.46,26.46,0,0,0,6.65-3.85,18.24,18.24,0,0,0,4.54-5.45,19,19,0,0,0,2-6.12,28.15,28.15,0,0,0-.49-9.85,26.8,26.8,0,0,0-1-3.66,34,34,0,0,0-56.52,1l.94.78.51.43c.19.15.42.29.65.45a17.39,17.39,0,0,0,1.66,1l1,.56c.36.18.76.34,1.15.53.79.39,1.7.68,2.65,1a42.86,42.86,0,0,0,6.65,1.53,53.56,53.56,0,0,0,8,.54,42,42,0,0,0,4.37-.25c.37,0,.78-.08,1.12-.14L75,59.05l1.14-.17,1.14-.23a27.27,27.27,0,0,0,8.8-3.13,9.19,9.19,0,0,0,3.18-3.07,5.13,5.13,0,0,0,.46-4,9,9,0,0,0-2.38-3.73A15.22,15.22,0,0,0,83.5,42a22.13,22.13,0,0,0-9-2.26,17.67,17.67,0,0,0-4.4.29,5.75,5.75,0,0,0-3.34,1.76,2.62,2.62,0,0,0-.11,3.06A5,5,0,0,0,69.34,47a8.22,8.22,0,0,0,.8.24l.46.08.11,0h.09l.22,0c.59.08,1.17.12,1.73.15a11,11,0,0,0,3.12-.22,2.48,2.48,0,0,0,1.94-1.4,2.12,2.12,0,0,0-.69-1.94,4.89,4.89,0,0,0-3-1.37,4.72,4.72,0,0,0-.9,0l-.31,0,.31-.05a4.75,4.75,0,0,1,.91-.07,5.15,5.15,0,0,1,1.47.21,4.59,4.59,0,0,1,1.8,1,3.26,3.26,0,0,1,.79,1A2.23,2.23,0,0,1,78.45,46a2.36,2.36,0,0,1-.88,1.35,4.62,4.62,0,0,1-1.45.74,11.89,11.89,0,0,1-3.39.49c-.59,0-1.2,0-1.82-.05l-.23,0h-.26L70,48.47a8.09,8.09,0,0,1-1-.24,6.42,6.42,0,0,1-3.55-2.55,4.41,4.41,0,0,1-.75-2.37,4.08,4.08,0,0,1,.79-2.51,7.45,7.45,0,0,1,4.28-2.58,18.22,18.22,0,0,1,4.89-.47c.77,0,1.65.08,2.5.16s1.67.23,2.5.43A21.77,21.77,0,0,1,84.5,40a17.37,17.37,0,0,1,4.41,3,11.18,11.18,0,0,1,3,4.72,7.42,7.42,0,0,1-.71,5.77,11.39,11.39,0,0,1-4,3.84,20.94,20.94,0,0,1-4.76,2.09c-.81.24-1.61.49-2.42.65l-1.21.28-1.2.21-1.19.21L75.26,61l-1.17.15c-.43.06-.78.07-1.17.1a43.87,43.87,0,0,1-4.57.07,47.56,47.56,0,0,1-8.26-1,38.46,38.46,0,0,1-6.73-2,29,29,0,0,1-2.64-1.27c-.39-.22-.78-.42-1.13-.64l-1-.66A14.26,14.26,0,0,1,47,54.58c-.22-.19-.43-.35-.61-.52l-.47-.48-.85-.87A33.8,33.8,0,0,0,39.74,71c0,18.76,15.21,29.37,34,29.37s34-10.61,34-29.37A33.82,33.82,0,0,0,101.62,51.68Z" transform="translate(0 -37.05)"/><path class="cls-12" d="M71.31,90.07a52.76,52.76,0,0,1-29.89-8.94c4.45,12.41,17.21,19.26,32.28,19.26,17,0,31.07-8.71,33.57-24.29C98.66,84.63,85.75,90.07,71.31,90.07Z" transform="translate(0 -37.05)"/><path class="cls-7" d="M89.18,61.2c0,11-9.23,19.95-20.61,19.95S48,72.22,48,61.2,57.2,41.26,68.58,41.26c7.7,0,14.59,4.93,17.7,9.38A22.47,22.47,0,0,1,89.18,61.2Z" transform="translate(0 -37.05)"/><text class="cls-13" transform="translate(0.22 87.49)">Brusunky</text><text class="cls-14" transform="translate(0 107.58)">p<tspan class="cls-15" x="9.05" y="0">r</tspan><tspan class="cls-16" x="15.03" y="0">emium</tspan></text></g></g></svg>